<?xml version="1.0" encoding="UTF-8" standalone="no"?>
<svg
   xmlns:dc="http://purl.org/dc/elements/1.1/"
   xmlns:cc="http://creativecommons.org/ns#"
   xmlns:rdf="http://www.w3.org/1999/02/22-rdf-syntax-ns#"
   xmlns:svg="http://www.w3.org/2000/svg"
   xmlns="http://www.w3.org/2000/svg"
   xmlns:xlink="http://www.w3.org/1999/xlink"
   version="1.1"
   id="svg4887"
   viewBox="0 0 744.09448819 1052.3622047"
   height="297mm"
   width="210mm">
  <defs
     id="defs4889">
    <linearGradient
       y2="169.18584"
       x2="-248.90158"
       y1="130.64851"
       x1="-205.76807"
       gradientUnits="userSpaceOnUse"
       id="linearGradient4254"
       xlink:href="#linearGradient4159" />
    <linearGradient
       id="linearGradient4159">
      <stop
         id="stop4161"
         offset="0"
         style="stop-color:#79c735;stop-opacity:0.99215686" />
      <stop
         id="stop4163"
         offset="1"
         style="stop-color:#d6e572;stop-opacity:1" />
    </linearGradient>
    <linearGradient
       y2="169.18584"
       x2="-248.90158"
       y1="130.64851"
       x1="-205.76807"
       gradientUnits="userSpaceOnUse"
       id="linearGradient5493"
       xlink:href="#linearGradient4159" />
    <linearGradient
       y2="169.18584"
       x2="-248.90158"
       y1="130.64851"
       x1="-205.76807"
       gradientUnits="userSpaceOnUse"
       id="linearGradient5495"
       xlink:href="#linearGradient4159" />
  </defs>
  <metadata
     id="metadata4892">
    <rdf:RDF>
      <cc:Work
         rdf:about="">
        <dc:format>image/svg+xml</dc:format>
        <dc:type
           rdf:resource="http://purl.org/dc/dcmitype/StillImage" />
        <dc:title></dc:title>
      </cc:Work>
    </rdf:RDF>
  </metadata>
  <g
     id="layer1">
    <path
       id="path4144"
       d="m 546.39344,53.558181 c -1.23727,6.95967 -3.00039,25.889977 -3.09319,33.066174 -0.0618,4.021136 0,4.608841 0.58771,5.722391 0.92796,1.732188 2.72201,2.629209 5.38215,2.629209 l 2.07243,0 0.21653,-7.825762 c 0.27838,-10.207517 1.23727,-22.487471 1.76311,-22.487471 0.34024,0 1.57752,3.402509 5.35122,14.507047 3.83555,11.352 4.083,11.908772 5.6296,13.640954 1.48473,1.639395 2.69107,2.165232 4.91816,2.165232 l 1.70125,0 1.361,-2.876659 c 0.74238,-1.546593 2.78387,-7.238063 4.51607,-12.589271 3.43343,-10.609633 4.8563,-14.537984 5.25841,-14.537984 0.46398,0 0.98982,6.031716 1.5466,17.940487 0.4021,8.753718 0.43304,9.001174 1.45379,10.238452 1.14448,1.330071 2.47456,1.824975 5.04189,1.824975 l 2.16524,0 0,-3.680886 c 0,-6.650358 -1.51566,-28.457326 -2.19617,-31.519583 -0.92795,-4.175804 -3.61902,-6.743148 -7.39271,-7.083397 l -1.73219,-0.154659 -1.17541,1.330069 c -2.1343,2.505481 -4.2686,7.578311 -7.70203,18.218874 -1.79405,5.536802 -3.30971,10.331244 -3.37158,10.640561 -0.18559,1.144484 -0.77329,0.804227 -1.11355,-0.711433 -0.37119,-1.670321 -7.05246,-20.693422 -8.13507,-23.198902 -0.8661,-2.072436 -3.34065,-4.330465 -5.7224,-5.258418 -1.17542,-0.463981 -2.78388,-0.7733 -4.48513,-0.866092 l -2.66014,-0.185594 -0.18559,1.051686 z"
       style="fill:#3f3f41;fill-opacity:1;stroke:none" />
    <path
       id="path4146"
       d="m 489.41693,54.640794 c -1.33006,0.680502 -2.56734,1.917776 -3.4953,3.526237 l -0.83516,1.391932 0,13.455364 c 0,15.589665 0.0309,15.806187 2.66015,18.713786 2.0415,2.227094 4.36139,3.247842 7.98041,3.464364 4.39233,0.278389 7.02154,-0.680499 8.22788,-3.031319 0.40212,-0.742367 0.6805,-5.227487 0.34026,-5.227487 -0.0618,0 -0.64957,0.216522 -1.29914,0.494911 -0.7733,0.34025 -2.16523,0.525845 -3.83555,0.556771 -3.21693,0.03096 -4.4542,-0.525844 -5.47495,-2.598276 -0.6805,-1.299138 -0.71143,-1.701255 -0.71143,-9.032106 l 0,-7.671102 4.02115,0 c 3.43343,0 4.23766,-0.0928 5.25841,-0.618638 1.60847,-0.835168 2.16524,-1.979644 2.16524,-4.454194 l 0,-2.041502 -5.6296,-0.06186 -5.66054,-0.0928 -0.0928,-3.649962 -0.0928,-3.619029 -1.29914,0 c -0.71144,0 -1.70126,0.216523 -2.2271,0.494909 z"
       style="fill:#3f3f41;fill-opacity:1;stroke:none" />
    <circle
       r="53.566795"
       cy="56.601002"
       cx="312.05328"
       id="path4192"
       style="fill:#ececec;fill-opacity:1;stroke:none;stroke-width:1.11099994;stroke-linecap:square;stroke-linejoin:round;stroke-miterlimit:0;stroke-dasharray:none;stroke-opacity:1" />
    <g
       transform="matrix(0.45055709,0,0,0.45055709,433.02483,-43.134643)"
       id="g4184">
      <path
         style="fill:#3f3f41;fill-opacity:1;stroke:none"
         d="m -328.26557,132.22256 0.0312,79.40429 c -0.125,44.25 0.25,73.75 1,78 2.25,12.125 10.125,17.625 25.375,17.625 l 7.125,0 0,-33.75 c 0,-29 0.25,-33.875 1.875,-34.5 2.625,-1 22.25,2.75 26.75,5.125 5.625,2.875 10.125,10.5 19,31.75 4.375,10.625 9.125,21.125 10.5,23.125 3.875,5.875 12.125,9.5 21.625,9.5 7.5,0 15.25,-2.5 15.25,-4.875 0,-0.625 -1.875,-4.125 -4,-7.875 -2.25,-3.625 -5.125,-8.875 -6.25,-11.625 -17,-39.625 -21,-47 -28.625,-51.5 -2,-1.25 -3.625,-2.5 -3.625,-2.875 0,-0.375 2.125,-1.5 4.75,-2.375 11.75,-4.25 20.75,-13.875 25.5,-27.375 0.60382,-1.73599 1.04334,-3.28094 1.375,-4.83593 1.20557,-4.1929 1.87633,-8.6107 1.91797,-13.17969 l -31.33904,-0.0312 c -0.10922,6.28523 0,0 -0.12484,6.30086 -0.25812,13.02686 -9.96321,22.97 -22.91893,23.53117 -3.68538,0.61237 -8.03997,0.87413 -13.28516,0.83984 -20.25,-0.25 -18.5,2.125 -18.125,-24.5 l 0.5,-24.25 35.53711,-0.0508 0,-31.57812 -69.81836,-0.0254 z"
         id="path4228-6" />
      <g
         id="g4179">
        <path
           id="path4171"
           d="m -255.30463,132.33779 0,7.99609 c 20.93281,1.23483 37.74807,17.75041 39.22265,38.44727 l 7.30665,0 c -1.38508,-25.03921 -21.47798,-45.10252 -46.5293,-46.44336 z"
           style="fill:url(#linearGradient5493);fill-opacity:1;stroke:none" />
        <path
           id="path4169"
           d="m -255.30463,143.54287 0,8.21094 c 14.65428,1.2395 26.37884,12.66278 27.70117,27.02734 l 8.30859,0 c -1.45895,-18.94782 -16.80078,-34.01758 -36.00976,-35.23828 z"
           style="fill:url(#linearGradient5495);fill-opacity:1;stroke:none" />
        <path
           id="path4142-7"
           d="m -255.30463,154.96474 0,8.94336 c 7.79063,1.16801 13.92732,7.22116 15.0664,14.87305 l 9.42383,0 c -1.29772,-12.60203 -11.54838,-22.60481 -24.49023,-23.81641 z"
           style="fill:url(#linearGradient4254);fill-opacity:1;stroke:none" />
      </g>
      <ellipse
         style="fill:#e4202c;fill-opacity:1;stroke:none;stroke-width:1.49752426;stroke-linecap:square;stroke-linejoin:round;stroke-miterlimit:0;stroke-dasharray:none;stroke-opacity:1"
         id="path4921-8"
         cx="-260.53754"
         cy="184.10193"
         rx="18.401178"
         ry="18.224401" />
    </g>
    <path
       id="path4148"
       d="m 366.77207,61.136491 c -2.84574,0.742364 -5.01097,1.979637 -6.95968,3.959276 -3.18597,3.247846 -4.63978,6.80501 -4.98003,12.249026 -0.46398,7.299918 2.75294,13.331631 8.69186,16.455752 2.84572,1.484733 5.22748,1.917777 9.34143,1.701255 4.14486,-0.185595 6.09357,-0.7733 7.91855,-2.412688 1.70125,-1.484733 2.16523,-2.722003 2.01058,-5.444008 l -0.0928,-1.948711 -1.36101,0.897028 c -4.83756,2.57843 -11.90865,2.882772 -15.62058,-0.278389 -1.23727,-1.082616 -2.35082,-2.969459 -2.35082,-3.990209 0,-0.556777 0.3093,-0.587705 6.27916,-0.742366 8.62999,-0.185595 11.59945,-1.020749 13.54817,-3.866481 1.35037,-3.100983 1.03359,-7.035464 -0.24747,-9.743546 -1.63938,-3.464368 -4.98003,-6.124508 -8.84651,-7.021533 -1.85592,-0.433046 -5.35122,-0.340249 -7.33085,0.185594 z m 7.08338,7.052468 c 2.07245,1.082616 3.24785,3.619024 2.50549,5.413073 -0.6805,1.639389 -1.97964,2.010572 -7.94949,2.1343 l -5.35121,0.123728 0,-0.742367 c 0,-0.402117 0.21653,-1.484727 0.49491,-2.381754 1.73658,-4.259024 6.04893,-6.545337 10.3003,-4.54698 z"
       style="fill:#3f3f41;fill-opacity:1;stroke:none" />
    <path
       id="path4150"
       d="m 391.73408,69.519031 c -0.64957,1.701247 -0.6805,2.381746 -0.7733,11.444787 -0.0928,9.06304 -0.0618,9.712606 0.49492,10.826156 1.11354,2.165233 2.93853,3.185981 5.75333,3.185981 l 1.70125,0 0.0928,-11.382927 0.0928,-11.413861 0.92796,-1.484726 c 1.67032,-2.660144 4.67072,-3.495304 7.48551,-2.072439 2.90761,1.484734 3.46437,3.990216 3.49531,15.032893 0,6.557552 0.0618,7.207125 0.64956,8.413469 0.89702,1.886843 2.28896,2.660136 5.10377,2.845731 l 2.28895,0.154662 0,-10.918957 c 0,-12.094361 0.0928,-12.712993 1.85591,-14.568909 2.59829,-2.752938 7.1762,-2.072432 8.90839,1.330072 1.02075,1.979637 1.2682,4.577914 1.29913,13.269771 0,7.052462 0.0309,7.330857 0.71143,8.351607 1.02075,1.546593 3.00039,2.443614 5.38215,2.443614 l 1.9487,0 0,-10.826155 c 0,-12.094361 -0.24745,-14.321454 -1.88683,-17.229046 -3.95928,-6.959674 -14.56893,-8.382542 -20.13667,-2.722012 l -1.45379,1.484728 -1.42287,-1.453794 c -2.34522,-2.432015 -5.87634,-3.364713 -8.32067,-3.464368 -6.47754,-0.478542 -12.42686,4.243781 -14.19773,8.753723 z"
       style="fill:#3f3f41;fill-opacity:1;stroke:none" />
    <path
       id="path4152"
       d="m 454.68044,62.34283 c -5.56774,2.629211 -8.81558,8.660927 -8.81558,16.239234 0.0309,3.897421 0.37117,5.59867 1.85592,8.660923 1.9487,4.021142 5.75333,7.114329 9.92913,8.011358 3.80461,0.804226 8.90838,0.185595 11.9397,-1.4538 6.46476,-3.495298 9.77447,-12.743926 7.60923,-21.219261 -0.83515,-3.278782 -1.9487,-5.227487 -4.36139,-7.640177 -5.43673,-4.593905 -12.10506,-5.454076 -18.15701,-2.598277 z m 9.991,6.310106 c 1.79405,0.804227 3.43343,2.783871 4.083,4.88723 0.74237,2.412694 0.71144,8.011358 -0.0309,9.960068 -1.23727,3.309709 -3.18598,4.670715 -6.68128,4.670715 -5.16562,0 -7.73297,-3.495304 -7.73297,-10.51684 0,-4.206731 1.57752,-7.702035 4.083,-8.939313 1.70126,-0.83516 4.547,-0.866094 6.27918,-0.06186 z"
       style="fill:#3f3f41;fill-opacity:1;stroke:none" />
    <path
       id="path4154"
       d="m 520.19414,61.136491 c -7.48551,1.979637 -12.06343,8.568128 -12.06343,17.383712 0,5.165619 1.48473,8.970239 4.79444,12.310883 3.55716,3.588098 7.54738,4.980037 13.3935,4.670714 4.05209,-0.216522 6.03172,-0.7733 7.73297,-2.258026 1.67032,-1.422866 2.2271,-2.752938 2.2271,-5.413082 0,-2.103365 -0.21652,-2.536409 -0.89703,-1.701255 -0.6805,0.804234 -3.9902,2.041512 -6.4029,2.381761 -4.73257,0.649567 -8.10416,-0.247455 -10.42404,-2.814805 -1.23727,-1.360998 -2.2271,-3.464364 -1.82498,-3.835547 0.0928,-0.0928 2.50548,-0.185594 5.35122,-0.185594 9.65075,0 13.82655,-1.515661 15.12568,-5.444009 0.24747,-0.711433 0.34025,-2.103372 0.21652,-3.711827 -0.24745,-4.144869 -1.9487,-7.17619 -5.28934,-9.403288 -3.40251,-2.319891 -7.91856,-3.062256 -11.93971,-1.979637 z m 6.06265,6.774079 c 1.76312,0.525837 2.66014,1.330071 3.37158,3.062253 0.95889,2.28896 -0.12374,3.990215 -2.9076,4.516054 -0.92796,0.154661 -3.58809,0.309322 -5.93892,0.309322 l -4.29954,0 0,-0.927961 c 0,-1.763116 1.20635,-4.237665 2.69108,-5.567736 2.1343,-1.85591 4.1758,-2.258027 7.0834,-1.391932 z"
       style="fill:#3f3f41;fill-opacity:1;stroke:none" />
    <path
       id="path4160"
       d="m 719.39539,61.940718 c -6.12448,1.082614 -10.94986,5.567741 -12.46554,11.630382 -1.05169,4.175809 -0.95888,7.145262 0.40214,10.733361 0.80421,2.165233 3.34063,5.010964 5.50586,6.186375 4.82537,2.62921 11.53758,2.134299 14.4452,-1.051683 0.58768,-0.680499 1.14445,-1.206344 1.23726,-1.206344 0.30934,0 0.15468,5.134693 -0.18557,6.341029 -1.05169,3.711827 -4.60889,5.320288 -10.60965,4.763516 -3.03134,-0.27839 -5.13467,-0.989822 -6.86689,-2.319894 -0.74235,-0.587705 -1.45378,-1.051683 -1.5466,-1.051683 -0.0928,0 -0.12371,1.299138 -0.0619,2.845733 0.0619,2.44361 0.21653,3.03132 0.83516,3.89742 2.38176,3.37157 8.56815,5.10376 14.10496,3.95927 5.81519,-1.20633 9.68168,-4.33045 11.63039,-9.434217 1.05167,-2.752932 1.1754,-5.041892 0.92796,-15.032894 -0.27843,-10.362172 -0.43305,-11.290126 -2.31989,-14.537975 -2.69109,-4.577918 -8.5991,-6.835944 -15.03293,-5.722396 z m 4.57794,7.26899 c 1.88684,0.556771 3.4953,2.28896 4.08302,4.330458 0.61864,2.165232 0.27839,6.186381 -0.61867,8.011358 -1.42284,2.814798 -4.76347,4.361391 -7.67109,3.557164 -2.01056,-0.556771 -3.8974,-2.381754 -4.57794,-4.361392 -2.02918,-6.194678 3.47219,-12.91599 8.78468,-11.537588 z"
       style="fill:#3f3f41;fill-opacity:1;stroke:none" />
    <path
       id="path4162"
       d="m 697.77403,61.414876 c -5.40212,2.082442 -6.33764,3.921559 -8.53719,8.320676 l 0,11.197339 0,11.197333 0.77329,0.866094 c 1.1754,1.268212 2.96948,1.979637 5.16561,1.979637 l 1.9178,0 0.0928,-11.228265 c 0.0928,-10.640568 0.12371,-11.259206 0.74234,-12.434618 1.23727,-2.41268 3.80464,-3.340642 7.26898,-2.660136 1.05168,0.216522 2.10337,0.463977 2.35085,0.556772 0.40211,0.154661 0.46396,-0.185596 0.37115,-2.258027 -0.0928,-1.97964 -0.27838,-2.660141 -0.86606,-3.495303 -1.48475,-2.072436 -5.75333,-3.031323 -9.27959,-2.041502 z"
       style="fill:#3f3f41;fill-opacity:1;stroke:none" />
    <circle
       r="5.2274408"
       cy="89.676811"
       cx="639.00476"
       id="path5005"
       style="fill:#56a364;fill-opacity:1;stroke:none;stroke-width:1;stroke-linecap:square;stroke-linejoin:round;stroke-miterlimit:0;stroke-dasharray:none;stroke-opacity:1" />
    <path
       id="path4152-0"
       d="m 658.85076,62.386977 c -5.5677,2.629211 -8.81557,8.660925 -8.81557,16.239232 0.0309,3.897415 0.37119,5.59867 1.85588,8.660923 1.94876,4.021143 5.75334,7.114337 9.92917,8.011352 3.80459,0.804233 8.90839,0.185594 11.93968,-1.453794 6.46477,-3.495304 9.7745,-12.743926 7.60928,-21.219261 -0.83516,-3.278782 -1.94876,-5.227487 -4.36141,-7.640174 -5.43675,-4.593906 -12.10509,-5.454077 -18.15703,-2.598278 z m 9.99098,6.310104 c 1.79408,0.804227 3.43344,2.783864 4.08303,4.887236 0.74239,2.412682 0.71144,8.011351 -0.0309,9.960062 -1.2373,3.309703 -3.186,4.670709 -6.6813,4.670709 -5.16561,0 -7.73299,-3.495298 -7.73299,-10.516834 0,-4.206737 1.57756,-7.702035 4.08303,-8.939312 1.70126,-0.835161 4.54698,-0.866089 6.27915,-0.06186 z"
       style="fill:#3f3f41;fill-opacity:1;stroke:none" />
    <path
       id="path4154-8"
       d="m 610.48174,61.186073 c -7.48552,1.979639 -12.06344,8.568127 -12.06344,17.383711 0,5.165619 1.48473,8.970246 4.79443,12.310889 3.55718,3.588092 7.54738,4.980031 13.39349,4.670708 4.05212,-0.216522 6.03173,-0.7733 7.73299,-2.258026 1.67032,-1.422866 2.22709,-2.752938 2.22709,-5.413081 0,-2.10336 -0.21653,-2.53641 -0.89702,-1.701249 -0.68049,0.804227 -3.99021,2.041505 -6.40292,2.381754 -4.73255,0.649567 -8.10414,-0.247455 -10.42404,-2.814798 -1.23725,-1.361005 -2.22707,-3.464371 -1.82498,-3.835554 0.0928,-0.0928 2.50551,-0.185594 5.35124,-0.185594 9.65073,0 13.82656,-1.515661 15.12569,-5.444009 0.24743,-0.711433 0.34024,-2.103366 0.21652,-3.711826 -0.24748,-4.14487 -1.94869,-7.176191 -5.28937,-9.403286 -3.40249,-2.319892 -7.91852,-3.062257 -11.93968,-1.979639 z m 6.06263,6.774077 c 1.76311,0.525845 2.66013,1.330072 3.37158,3.062261 0.95891,2.288953 -0.12372,3.990208 -2.90758,4.516053 -0.92796,0.154655 -3.58811,0.309317 -5.93891,0.309317 l -4.29955,0 0,-0.927956 c 0,-1.763122 1.20636,-4.237671 2.6911,-5.567743 2.13427,-1.855909 4.17578,-2.25802 7.08336,-1.391932 z"
       style="fill:#3f3f41;fill-opacity:1;stroke:none" />
    <path
       style="fill:#c83737"
       d="M 225.35233,34.246205 C 217.28234,27.546079 205.2804,28.75124 197.87307,36.19742 l -2.90106,2.912474 -2.90109,-2.912474 c -7.3926,-7.44618 -19.40925,-8.651341 -27.47926,-1.951215 -9.24811,7.690079 -9.73407,21.492052 -1.4579,29.827749 l 28.49537,28.665633 c 1.84078,1.850787 4.83024,1.850787 6.67102,0 l 28.49537,-28.665633 c 8.2909,-8.335697 7.80493,-22.13767 -1.44319,-29.827749 z"
       id="path5499" />
    <text
       id="text5508"
       y="130.93362"
       x="-371.42856"
       style="font-style:normal;font-weight:normal;font-size:40px;line-height:125%;font-family:Fontastique;letter-spacing:0px;word-spacing:0px;fill:#000000;fill-opacity:1;stroke:none;stroke-width:1px;stroke-linecap:butt;stroke-linejoin:miter;stroke-opacity:1;-inkscape-font-specification:Fontastique;font-stretch:normal;font-variant:normal;"
       xml:space="preserve"><tspan
         y="130.93362"
         x="-371.42856"
         id="tspan5510" /></text>
    <text
       id="text5512"
       y="-37.637794"
       x="-553.57141"
       style="font-style:normal;font-weight:normal;font-size:40px;line-height:125%;font-family:Fontastique;letter-spacing:0px;word-spacing:0px;fill:#000000;fill-opacity:1;stroke:none;stroke-width:1px;stroke-linecap:butt;stroke-linejoin:miter;stroke-opacity:1;-inkscape-font-specification:Fontastique;font-stretch:normal;font-variant:normal;"
       xml:space="preserve"><tspan
         y="-37.637794"
         x="-553.57141"
         id="tspan5514" /></text>
    <text
       id="text5516"
       y="-0.49493924"
       x="-530"
       style="font-style:normal;font-weight:normal;font-size:40px;line-height:125%;font-family:Fontastique;letter-spacing:0px;word-spacing:0px;fill:#000000;fill-opacity:1;stroke:none;stroke-width:1px;stroke-linecap:butt;stroke-linejoin:miter;stroke-opacity:1;-inkscape-font-specification:Fontastique;font-stretch:normal;font-variant:normal;"
       xml:space="preserve"><tspan
         y="-0.49493924"
         x="-530"
         id="tspan5518" /></text>
    <g
       id="text4165"
       style="font-style:normal;font-weight:normal;font-size:67.96123505px;line-height:125%;font-family:sans-serif;letter-spacing:0px;word-spacing:0px;fill:#3f3f41;fill-opacity:1;stroke:none;stroke-width:1px;stroke-linecap:butt;stroke-linejoin:miter;stroke-opacity:1">
      <path
         id="path4172"
         style="font-style:normal;font-variant:normal;font-weight:normal;font-stretch:normal;font-family:Fontastique;-inkscape-font-specification:Fontastique;fill:#3f3f41;fill-opacity:1"
         d="m 46.550957,65.440743 q 0.883496,-2.174759 2.446604,-2.922333 1.63107,-0.815535 3.194178,-0.951457 1.834954,-0.135923 3.873791,0.339806 -2.650488,6.728162 -4.893209,12.436906 -0.951458,2.446605 -1.970876,4.96117 -1.019419,2.446605 -1.970876,4.689325 -0.883496,2.17476 -1.699031,3.873791 -0.747573,1.699031 -1.223302,2.582527 -1.155341,2.174759 -2.786411,2.922333 -1.631069,0.815535 -3.058255,0.951457 -1.766992,0.135923 -3.466023,-0.407767 -1.291264,-4.077674 -2.514566,-7.815542 -1.019418,-3.262139 -2.038837,-6.660201 -1.019418,-3.398062 -1.495147,-5.708744 -0.54369,2.446604 -1.08738,4.893209 -0.54369,2.446604 -1.155341,4.621364 -0.611651,2.174759 -1.291263,4.009713 -0.611651,1.834953 -1.291264,3.058255 -1.08738,1.970876 -2.650488,2.786411 -1.563108,0.815535 -3.058256,0.951457 Q 16.648013,94.256307 14.81306,93.780578 14.337331,92.557276 13.385874,90.382517 12.434417,88.139796 11.279076,85.421346 10.191696,82.702897 8.9683938,79.712603 7.7450916,76.722308 6.5897506,74.003859 5.5023708,71.217448 4.5509135,68.974728 3.6674175,66.732007 3.1916888,65.508705 2.5120765,64.14948 2.1043091,63.130061 1.8324641,62.51841 1.6285804,61.906759 3.6674175,61.43103 5.5023708,61.566953 q 1.5631084,0.135922 3.1262168,0.951457 1.6310694,0.747574 2.5825274,2.922333 0.271845,0.747574 0.747573,2.038837 0.54369,1.223303 1.08738,2.71845 0.611651,1.495147 1.223302,3.126217 0.679612,1.631069 1.291264,3.262139 1.495147,3.737868 3.194178,8.087387 1.019418,-4.349519 1.970875,-8.087387 0.815535,-3.262139 1.699031,-6.388356 0.883496,-3.194178 1.495148,-4.757287 0.883496,-2.174759 2.378643,-2.922333 1.495147,-0.815535 2.990294,-0.951457 1.766992,-0.135923 3.601946,0.339806 l 6.116511,22.767014 q 1.631069,-4.349519 3.126217,-8.087387 1.291263,-3.262139 2.514565,-6.388356 1.223302,-3.194178 1.902915,-4.757287 z" />
      <path
         id="path4174"
         style="font-style:normal;font-variant:normal;font-weight:normal;font-stretch:normal;font-family:Fontastique;-inkscape-font-specification:Fontastique;fill:#3f3f41;fill-opacity:1"
         d="m 67.520183,51.848496 q -1.427186,2.378644 -3.941752,2.378644 -1.08738,0 -2.038837,-0.475729 -1.019419,-0.611651 -1.563108,-1.563109 -0.54369,-1.019418 -0.54369,-2.174759 0,-1.291263 0.611651,-2.310682 0.611651,-1.155341 1.699031,-1.766992 1.087379,-0.679612 2.24272,-0.679612 1.019419,0 1.970876,0.543689 1.08738,0.54369 1.63107,1.563109 0.54369,1.019418 0.54369,2.174759 0,1.223303 -0.611651,2.310682 z m 5.300976,35.067998 q -0.339806,0.475728 -1.155341,0.815534 -0.815535,0.271845 -1.63107,0.135923 -0.815534,-0.135923 -1.427186,-0.815535 -0.611651,-0.747574 -0.611651,-2.378643 l 0,-16.242735 q 0,-2.038837 0,-3.26214 0.06796,-1.291263 0.135923,-2.038837 0.06796,-0.815534 0.135922,-1.291263 -4.213596,0 -6.388356,1.766992 -2.174759,1.766992 -2.174759,5.844666 l -0.06796,16.038852 q 0,1.699031 0.475729,3.262139 0.54369,1.563108 1.563108,2.718449 1.08738,1.155341 2.650489,1.766992 1.563108,0.679613 3.669906,0.475729 2.17476,-0.135922 3.194178,-1.223302 1.019419,-1.155341 1.359225,-2.378643 0.407767,-1.427186 0.271845,-3.194178 z" />
      <path
         id="path4176"
         style="font-style:normal;font-variant:normal;font-weight:normal;font-stretch:normal;font-family:Fontastique;-inkscape-font-specification:Fontastique;fill:#3f3f41;fill-opacity:1"
         d="m 95.038116,87.052416 q 0,0.203884 0.06796,0.475729 0.135923,0.54369 0.135923,1.019418 0,1.223302 -0.54369,2.242721 -0.54369,0.951457 -1.495147,1.63107 -1.902915,1.359224 -4.621364,1.359224 -2.242721,0 -4.417481,-1.019418 -2.174759,-1.019419 -3.941751,-3.058256 -1.766992,-2.038837 -2.854372,-5.029131 -1.019419,-3.058256 -1.019419,-7.13593 l 0.06796,-19.640797 q 0,-4.077674 2.174759,-5.844666 2.17476,-1.766992 6.320395,-1.766992 -0.06796,0.475729 -0.135922,1.291263 -0.06796,0.747574 -0.135923,2.038837 0,1.223303 0,3.26214 l 0.06796,4.281558 9.106806,0 q 0,3.058255 -1.699031,4.893208 -1.699031,1.834954 -4.825248,1.834954 l -2.582527,0 -0.06796,9.650495 q 0,2.854372 0.475729,4.825248 0.54369,1.902914 1.427186,3.126217 1.834953,2.310682 4.757286,2.310682 1.223302,0 2.446605,-0.339807 0.679612,-0.203883 1.291263,-0.407767 z" />
      <path
         id="path4178"
         style="font-style:normal;font-variant:normal;font-weight:normal;font-stretch:normal;font-family:Fontastique;-inkscape-font-specification:Fontastique;fill:#3f3f41;fill-opacity:1"
         d="m 128.21169,86.440765 q 0,2.038837 0,3.3301 0.068,1.291264 0.13592,2.038838 0.068,0.815534 0.13592,1.223302 -4.21359,0 -6.45631,-1.766992 -2.24273,-1.766992 -2.24273,-5.776705 l -0.068,-9.582534 q 0,-2.854372 -0.61165,-4.553403 -0.54369,-1.766992 -1.49514,-2.71845 -0.8835,-1.019418 -2.03884,-1.359224 -1.08738,-0.339806 -2.24272,-0.339806 -1.15534,0 -2.31068,0.339806 -1.08738,0.339806 -2.03884,1.359224 -0.8835,0.951458 -1.42719,2.71845 -0.54369,1.699031 -0.54369,4.553403 l 0,10.533991 q 0,2.038837 0,3.3301 0.068,1.291264 0.13592,2.038838 0.068,0.815534 0.13593,1.223302 -4.2136,0 -6.45632,-1.766992 -2.174759,-1.766992 -2.174759,-5.776705 l 0.06796,-32.145665 q 0,-4.077674 2.106798,-5.776704 2.1068,-1.766993 6.32039,-1.766993 -0.068,0.407768 -0.13592,1.223303 -0.068,0.747573 -0.13592,2.038837 0,1.291263 0,3.3301 l 0,9.718457 q 1.56311,-0.54369 3.19418,-0.747574 1.69903,-0.203883 3.26214,-0.203883 2.65049,0 5.30097,0.611651 2.65049,0.54369 4.75729,2.174759 2.17476,1.63107 3.46602,4.553403 1.35923,2.854372 1.35923,7.407775 l 0,10.533991 z" />
    </g>
  </g>
</svg>
